<?xml version="1.0" encoding="UTF-8" standalone="no"?>
<!-- Generator: Adobe Illustrator 18.0.0, SVG Export Plug-In . SVG Version: 6.00 Build 0)  -->

<svg
   version="1.1"
   id="Capa_1"
   x="0px"
   y="0px"
   viewBox="0 0 74.4 74.4"
   xml:space="preserve"
   sodipodi:docname="page-link-svgrepo-com.svg"
   width="24"
   height="24"
   inkscape:version="1.2 (dc2aedaf03, 2022-05-15)"
   xmlns:inkscape="http://www.inkscape.org/namespaces/inkscape"
   xmlns:sodipodi="http://sodipodi.sourceforge.net/DTD/sodipodi-0.dtd"
   xmlns:xlink="http://www.w3.org/1999/xlink"
   xmlns="http://www.w3.org/2000/svg"
   xmlns:svg="http://www.w3.org/2000/svg"><defs
   id="defs41"><linearGradient
     id="linearGradient2427"
     inkscape:swatch="solid"><stop
       style="stop-color:#000000;stop-opacity:1;"
       offset="0"
       id="stop2425" /></linearGradient><marker
     style="overflow:visible"
     id="Arrow2"
     refX="0"
     refY="0"
     orient="auto-start-reverse"
     inkscape:stockid="Arrow2"
     markerWidth="3.95"
     markerHeight="2.8727274"
     viewBox="0 0 7.7 5.6"
     inkscape:isstock="true"
     inkscape:collect="always"
     preserveAspectRatio="xMidYMid"><path
       transform="scale(0.7)"
       d="M -2,-4 9,0 -2,4 c 2,-2.33 2,-5.66 0,-8 z"
       style="fill:context-stroke;fill-rule:evenodd;stroke:none"
       id="arrow2L" /></marker><linearGradient
     inkscape:collect="always"
     xlink:href="#linearGradient2427"
     id="linearGradient2429"
     x1="11.910472"
     y1="31.076272"
     x2="49.704014"
     y2="31.076272"
     gradientUnits="userSpaceOnUse"
     gradientTransform="matrix(0.59215908,0,0,0.64206835,32.47248,33.615632)" /></defs><sodipodi:namedview
   id="namedview39"
   pagecolor="#ffffff"
   bordercolor="#000000"
   borderopacity="0.25"
   inkscape:showpageshadow="2"
   inkscape:pageopacity="0.0"
   inkscape:pagecheckerboard="0"
   inkscape:deskcolor="#d1d1d1"
   showgrid="false"
   inkscape:zoom="33.916666"
   inkscape:cx="12.309583"
   inkscape:cy="10.909091"
   inkscape:window-width="1920"
   inkscape:window-height="1017"
   inkscape:window-x="1912"
   inkscape:window-y="-8"
   inkscape:window-maximized="1"
   inkscape:current-layer="Capa_1" />
<g
   id="g6"
   transform="matrix(0.22084287,0,0,0.23058408,1.069869,-0.50510423)">
	<path
   d="m 233.008,136.025 -11.44,-11.442 c -4.7,-4.699 -10.948,-7.287 -17.595,-7.287 -6.646,0 -12.895,2.588 -17.596,7.287 l -34.605,34.606 c -4.776,4.776 -7.195,11.028 -7.269,17.302 -6.542,0.072 -12.681,2.648 -17.313,7.28 l -34.604,34.605 c -4.701,4.7 -7.29,10.95 -7.289,17.598 0.001,6.646 2.589,12.894 7.289,17.593 l 11.439,11.438 c 4.699,4.702 10.948,7.291 17.594,7.291 6.646,0 12.894,-2.589 17.597,-7.289 l 34.605,-34.605 c 4.63,-4.631 7.206,-10.767 7.281,-17.302 6.535,-0.076 12.67,-2.65 17.303,-7.281 l 34.604,-34.605 c 4.7,-4.7 7.288,-10.949 7.288,-17.595 -0.001,-6.646 -2.59,-12.895 -7.289,-17.594 z m -69.795,83.77 -34.605,34.604 c -1.868,1.867 -4.351,2.896 -6.99,2.896 -2.638,0 -5.119,-1.028 -6.986,-2.896 L 103.19,242.96 c -1.866,-1.866 -2.895,-4.348 -2.895,-6.987 0,-2.64 1.027,-5.122 2.896,-6.988 l 34.606,-34.607 c 1.866,-1.866 4.348,-2.893 6.987,-2.893 2.64,0 5.121,1.027 6.987,2.895 l 0.417,0.417 -22.923,22.924 c -2.929,2.93 -2.929,7.678 0,10.607 1.465,1.464 3.385,2.196 5.304,2.196 1.919,0 3.839,-0.732 5.304,-2.196 l 22.924,-22.924 0.417,0.417 c 1.866,1.866 2.895,4.348 2.895,6.987 -0.001,2.638 -1.029,5.121 -2.896,6.987 z m 59.187,-59.187 -34.602,34.604 c -1.868,1.867 -4.351,2.896 -6.991,2.896 -2.64,0 -5.121,-1.027 -6.987,-2.895 l -0.417,-0.417 22.925,-22.924 c 2.929,-2.93 2.929,-7.678 0,-10.607 -2.93,-2.928 -7.678,-2.928 -10.607,0 l -22.925,22.925 -0.417,-0.417 c -3.853,-3.854 -3.853,-10.124 0,-13.977 l 34.604,-34.605 c 1.867,-1.867 4.349,-2.895 6.989,-2.895 2.64,0 5.122,1.027 6.988,2.894 l 11.44,11.442 c 1.866,1.866 2.895,4.348 2.895,6.987 0.001,2.64 -1.027,5.122 -2.895,6.989 z"
   id="path2" />
	<path
   d="M 308.092,8.463 H 17.5 C 7.851,8.463 0,16.314 0,25.963 v 273.666 c 0,9.649 7.851,17.5 17.5,17.5 h 290.592 c 9.649,0 17.5,-7.851 17.5,-17.5 V 25.963 c 0,-9.65 -7.851,-17.5 -17.5,-17.5 z m -34.626,26.833 c 7.994,0 14.5,6.505 14.5,14.5 0,7.995 -6.506,14.5 -14.5,14.5 -7.996,0 -14.5,-6.505 -14.5,-14.5 0,-7.995 6.504,-14.5 14.5,-14.5 z m -49.172,0 c 7.995,0 14.5,6.505 14.5,14.5 0,7.995 -6.505,14.5 -14.5,14.5 -7.995,0 -14.5,-6.505 -14.5,-14.5 0,-7.995 6.505,-14.5 14.5,-14.5 z m -179.895,7 h 58.5 c 4.143,0 7.5,3.357 7.5,7.5 0,4.143 -3.357,7.5 -7.5,7.5 h -58.5 c -4.143,0 -7.5,-3.357 -7.5,-7.5 0,-4.143 3.358,-7.5 7.5,-7.5 z m 253.397,244.51 c 0,1.258 -1.024,2.283 -2.283,2.283 H 30.079 c -1.259,0 -2.283,-1.025 -2.283,-2.283 V 98.336 h 270 z"
   id="path4" />
</g>
<g
   id="g8"
   transform="matrix(0.06756923,0,0,0.07127445,138.37063,130.14916)">
</g>
<g
   id="g10"
   transform="matrix(0.06756923,0,0,0.07127445,138.37063,130.14916)">
</g>
<g
   id="g12"
   transform="matrix(0.06756923,0,0,0.07127445,138.37063,130.14916)">
</g>
<g
   id="g14"
   transform="matrix(0.06756923,0,0,0.07127445,138.37063,130.14916)">
</g>
<g
   id="g16"
   transform="matrix(0.06756923,0,0,0.07127445,138.37063,130.14916)">
</g>
<g
   id="g18"
   transform="matrix(0.06756923,0,0,0.07127445,138.37063,130.14916)">
</g>
<g
   id="g20"
   transform="matrix(0.06756923,0,0,0.07127445,138.37063,130.14916)">
</g>
<g
   id="g22"
   transform="matrix(0.06756923,0,0,0.07127445,138.37063,130.14916)">
</g>
<g
   id="g24"
   transform="matrix(0.06756923,0,0,0.07127445,138.37063,130.14916)">
</g>
<g
   id="g26"
   transform="matrix(0.06756923,0,0,0.07127445,138.37063,130.14916)">
</g>
<g
   id="g28"
   transform="matrix(0.06756923,0,0,0.07127445,138.37063,130.14916)">
</g>
<g
   id="g30"
   transform="matrix(0.06756923,0,0,0.07127445,138.37063,130.14916)">
</g>
<g
   id="g32"
   transform="matrix(0.06756923,0,0,0.07127445,138.37063,130.14916)">
</g>
<g
   id="g34"
   transform="matrix(0.06756923,0,0,0.07127445,138.37063,130.14916)">
</g>
<g
   id="g36"
   transform="matrix(0.06756923,0,0,0.07127445,138.37063,130.14916)">
</g>
<path
   style="fill:url(#linearGradient2429);fill-opacity:1;fill-rule:evenodd;stroke:#000000;stroke-width:4.61829;stroke-linecap:butt;stroke-linejoin:miter;stroke-dasharray:none;stroke-opacity:1;marker-end:url(#Arrow2);paint-order:stroke fill markers;image-rendering:auto"
   d="M 40.158036,64.425448 53.526573,50.634387"
   id="path1119"
   inkscape:connector-type="polyline"
   inkscape:connector-curvature="0" /></svg>
