<svg width="24" height="24" xmlns="http://www.w3.org/2000/svg" xmlns:xlink="http://www.w3.org/1999/xlink" overflow="hidden"><defs><clipPath id="clip0"><path d="M164 103 190 103 190 128 164 128Z" fill-rule="evenodd" clip-rule="evenodd"/></clipPath></defs><g clip-path="url(#clip0)" transform="translate(-164 -103)"><path d="M178.75 104 165 104 165 128 187 128 187 111.9" fill="#95BFF8" fill-rule="evenodd"/><path d="M177.717 105 166 105 166 127 185 127 185 112.3" fill="#E7F4FC" fill-rule="evenodd"/><path d="M177.2 106 167 106 167 126 184 126 184 112.7" fill="#CEE9F9" fill-rule="evenodd"/><path d="M182 125 169 125 169 124 182 124 182 125ZM182 122 169 122 169 123 182 123 182 122ZM182 120 169 120 169 121 182 121 182 120ZM182 118 169 118 169 119 182 119 182 118Z" fill="#FFFFFF" fill-rule="evenodd"/><path d="M181.179 108 168 108 168 116 183 116 183 109.8" fill="#76A1F0" fill-rule="evenodd"/><path d="M169 113 182 113 182 115 169 115Z" fill="#57C3F6" fill-rule="evenodd"/><path d="M178.767 114.878C178.186 114.634 177.488 114.512 175.628 114.39 173.884 114.268 174.581 113.902 173.302 113.414 172.14 112.804 169 113.048 169 113.048L169 115 179 115C179 115 178.884 114.878 178.767 114.878Z" fill="#F2EFD5" fill-rule="evenodd"/><path d="M175.181 114.797C173.554 114.729 174.205 114.391 173.012 114.12 171.928 113.85 169 114.12 169 114.12L169 115 178 115C177.133 115 176.807 114.865 175.181 114.797Z" fill="#F8E5B5" fill-rule="evenodd"/><path d="M169 109 182 109 182 113 169 113Z" fill="#57C3F6" fill-rule="evenodd"/><path d="M176.909 110.178C176.909 110.178 176.712 109.9 176.218 110.039 175.822 110.247 176.119 110.524 176.119 110.524L176.02 110.524C175.921 110.524 176.02 110.663 176.02 110.663 176.02 110.663 175.724 110.663 175.625 110.802 175.328 111.079 175.526 111.148 175.526 111.148 175.526 111.148 175.032 111.426 175.328 111.703 175.625 111.981 175.921 111.773 175.921 111.773 175.921 111.773 176.119 111.981 176.514 111.981 176.909 112.05 177.107 111.911 177.107 111.911 177.107 111.911 177.403 112.05 177.601 111.981 178.095 111.981 178.194 111.842 178.194 111.842 178.194 111.842 178.787 112.05 178.984 111.634 179.083 111.356 178.688 111.218 178.688 111.218 178.688 111.218 178.787 110.94 178.49 110.802 178.194 110.663 177.897 110.802 177.897 110.802 177.897 110.802 177.996 110.802 177.897 110.732 177.897 110.663 177.601 110.663 177.601 110.663 177.601 110.663 177.7 110.247 177.403 110.108 177.107 109.969 176.909 110.178 176.909 110.178ZM174.34 111.079C174.34 111.079 174.242 111.01 174.143 111.079 174.044 111.079 174.143 111.148 174.143 111.148 174.143 111.148 174.044 111.148 174.044 111.218L174.044 111.287C174.044 111.287 173.945 111.356 174.044 111.426 174.143 111.495 174.242 111.426 174.242 111.426 174.242 111.426 174.34 111.495 174.439 111.495L174.637 111.495C174.637 111.495 174.736 111.564 174.834 111.495L174.736 111.564C174.736 111.564 174.933 111.634 174.933 111.495 174.933 111.426 174.834 111.356 174.834 111.356 174.834 111.356 174.834 111.287 174.736 111.218L174.439 111.218C174.439 111.218 174.439 111.079 174.34 111.079 174.439 111.01 174.34 111.079 174.34 111.079Z" fill="#FFFFFF" fill-rule="evenodd"/><path d="M185 112C184 111.813 182.778 111.719 181.556 111.719 180.333 111.719 179.222 111.813 178.222 112 178.667 110.5 179 108.156 178 106L185 112Z" fill="#E7F4FC" fill-rule="evenodd"/><path d="M188.725 104.24C188.542 104.08 188.325 104 188.075 104L180.675 104C180.424 104 180.207 104.08 180.024 104.24 179.841 104.4 179.75 104.59 179.75 104.809 179.75 105.029 179.841 105.218 180.024 105.379L182.568 107.604 173.145 115.85C173.048 115.935 173 116.032 173 116.141 173 116.251 173.048 116.348 173.145 116.432L174.792 117.874C174.889 117.958 174.999 118 175.125 118 175.25 118 175.361 117.958 175.457 117.874L184.881 109.628 187.425 111.854C187.608 112.014 187.824 112.094 188.075 112.094 188.325 112.094 188.542 112.014 188.725 111.854 188.909 111.694 189 111.504 189 111.285L189 104.809C189 104.59 188.908 104.4 188.725 104.24Z" fill="#76A1F0" fill-rule="evenodd"/></g></svg>