<?xml version="1.0"?>
<svg width="74.4" height="74.4" xmlns="http://www.w3.org/2000/svg" xmlns:svg="http://www.w3.org/2000/svg" enable-background="new 0 0 74.4 74.4" preserveAspectRatio="xMinYMid meet" version="1.1" xml:space="preserve">
 <g class="layer">
  <title>Layer 1</title>
  <g id="svg_1">
   <path d="m66.5,15.1l-14.1,-14.1c-0.7,-0.7 -1.6,-1 -2.6,-1l-39.5,0c-2.1,0 -3.7,1.6 -3.7,3.7l0,0l0,67c0,2.1 1.6,3.7 3.7,3.7l0,0l53.7,0c2.1,0 3.7,-1.6 3.7,-3.7l0,0l0,-52.9c-0.2,-1 -0.5,-2 -1.2,-2.7zm-18.1,-8.4l12.5,12.5l-12.5,0l0,-12.5zm-36.5,62.5l0,-64.2l30.9,0l0,15.6c0,2.2 1.7,3.8 3.8,3.8l15.6,0l0,44.7l-50.3,0.1l0,0z" id="svg_2"/>
   <path d="m54.3,43l-34.6,0c-1.4,0 -2.6,1.2 -2.6,2.6s1.2,2.6 2.6,2.6l34.6,0c1.4,0 2.6,-1.2 2.6,-2.6c0.1,-1.4 -1.1,-2.6 -2.6,-2.6z" id="svg_3"/>
   <path d="m54.3,53.5l-34.6,0c-1.4,0 -2.6,1.2 -2.6,2.6s1.2,2.6 2.6,2.6l34.6,0c1.4,0 2.6,-1.2 2.6,-2.6s-1.1,-2.6 -2.6,-2.6z" id="svg_4"/>
   <path d="m19.8,37.8l20.9,0c1.4,0 2.6,-1.2 2.6,-2.6c0,-1.4 -1.2,-2.6 -2.6,-2.6l-20.9,0c-1.4,0 -2.6,1.2 -2.6,2.6s1.2,2.6 2.6,2.6z" id="svg_5"/>
  </g>
  <path d="m39.92,15.48l12.05,-17.5l12.05,17.5l-6.02,0l0,17.58l-12.05,0l0,-17.58z" fill="#000000" id="svg_6" stroke="#ffffff" stroke-width="2" transform="rotate(50.292 51.9671 15.5241)"/>
 </g>
</svg>